<?xml version="1.0" encoding="utf-8"?>
<!-- Generator: Adobe Illustrator 18.0.0, SVG Export Plug-In . SVG Version: 6.00 Build 0)  -->
<!DOCTYPE svg PUBLIC "-//W3C//DTD SVG 1.1//EN" "http://www.w3.org/Graphics/SVG/1.1/DTD/svg11.dtd">
<svg version="1.1" id="Layer_1" xmlns="http://www.w3.org/2000/svg" xmlns:xlink="http://www.w3.org/1999/xlink" x="0px" y="0px"
	 viewBox="0 0 310 310" enable-background="new 0 0 310 310" xml:space="preserve">
<path fill="#E18E26" stroke="#454545" stroke-width="20" stroke-miterlimit="10" d="M300,155c0,80.1-64.9,145-145,145
	c-80.1,0-145-64.9-145-145C10,74.9,74.9,10,155,10C235.1,10,300,74.9,300,155z"/>
<g>
	<path fill="#454545" d="M98,287c-34.5,0-51.1-18.8-51.1-42.1V68.5c0-25.2,22-40.6,50.7-40.6c32,0,50.3,15.7,50.3,40.6v41.2h-42.8
		V63.3c0-5.5-2.9-8.6-7.5-8.6c-6.2,0-7.5,4-7.5,8.6v187.1c0,4.6,2.1,8.3,7.9,8.3c4.6,0,7.1-3.4,7.1-8.3v-76.9h-9.6v-27.4h52.4v98.8
		C147.9,268.5,130.4,287,98,287z"/>
</g>
<rect x="165.1" y="14.2" fill="#454545" width="41.2" height="283.7"/>
<polygon fill="#454545" points="221.9,26.3 221.9,284.1 262.4,260.1 262.4,49.9 "/>
<rect x="171.8" y="141.2" fill="#454545" width="81.4" height="28"/>
</svg>
