<?xml version="1.0" encoding="utf-8"?>
<!-- Generator: Adobe Illustrator 16.0.0, SVG Export Plug-In . SVG Version: 6.00 Build 0)  -->
<!DOCTYPE svg PUBLIC "-//W3C//DTD SVG 1.1//EN" "http://www.w3.org/Graphics/SVG/1.1/DTD/svg11.dtd">
<svg version="1.1" id="Layer_1" xmlns="http://www.w3.org/2000/svg" xmlns:xlink="http://www.w3.org/1999/xlink" x="0px" y="0px"
	 width="512px" height="512px" viewBox="0 0 512 512" enable-background="new 0 0 512 512" xml:space="preserve">
<g>
	<path d="M480.35,68.627c-9.938-9.678-25.829-9.482-35.508,0.458c-9.678,9.939-9.481,25.83,0.458,35.508
		c0.081,0.082,8.306,9.629,7.521,27.89c-0.347,8.065-2.747,19.949-10.443,35.296c8.044,4.464,15.496,9.827,22.035,16.234
		c5.917,5.801,11.017,12.4,15.393,19.562c14.221-23.656,22.236-46.707,23.188-68.95C504.758,93.64,482.852,71.063,480.35,68.627z"/>
	<path d="M385.434,186.972c-33.399,0-68.875,16.675-88.232,43.649C198.031,368.944,97.688,376.039,44.917,376.039
		c-6.034,0-11.445-0.098-16.153-0.098c-18.359,0-26.206,1.405-19.258,15.122c16.461,32.532,91.55,72.356,183.785,72.356
		c74.287,0,159.69-25.846,234.484-102.159c37.73-38.484,51.66-115.631,13.192-153.347
		C426.188,193.43,406.211,186.972,385.434,186.972z"/>
	<path d="M71.379,309.679c-1.885-24.428,2.672-79.845,75.484-111.05c0,0-27.031,65.377,9.581,98.454
		c26.563-20.731,45.248-54.591,47.165-87.338c5.509-94.46-60.441-144.175-103.258-166.326c-4.38-2.273-9.727-1.505-13.273,1.929
		c-3.564,3.417-4.529,8.729-2.436,13.193c16.543,35.117,27.676,97.942-43.094,171.066C19.941,251.919,37.547,292.965,71.379,309.679
		z"/>
</g>
</svg>
